<?xml version="1.0" encoding="UTF-8"?>
<svg id="Layer_1" data-name="Layer 1" xmlns="http://www.w3.org/2000/svg" viewBox="0 0 394.13 304.25">
  <defs>
    <style>
      .cls-1 {
        fill: #004b6c;
        font-family: Arial-Black, 'Arial Black';
        font-size: 12px;
        font-weight: 800;
      }

      .cls-2 {
        fill: #1382c0;
      }

      .cls-3 {
        fill: #233f75;
      }
    </style>
  </defs>
  <path class="cls-3" d="M33.55,303.72c-.59-.98-3.61-11.91-3.37-12.3.15-.2.78-.39,1.42-.39.98,0,1.22.39,1.95,3.56.49,1.9,1.03,3.81,1.22,4.15.2.39.78-1.12,1.46-3.56,1.12-4.15,1.12-4.2,2.59-4.05,1.42.15,1.56.34,2.39,3.56.54,1.9,1.07,3.76,1.22,4.15.15.39.73-1.12,1.32-3.42.98-3.86,1.17-4.15,2.39-4.3.83-.1,1.32.05,1.32.49,0,.34-.73,3.27-1.66,6.49-1.61,5.71-1.66,5.86-3.03,5.86-1.27,0-1.46-.24-2.44-3.42-.59-1.86-1.27-3.47-1.51-3.52-.24-.1-.98,1.46-1.56,3.52-.93,3.27-1.17,3.66-2.25,3.66-.63,0-1.32-.24-1.46-.49h0Z"/>
  <path class="cls-3" d="M51.61,303.13c.2-.63,1.27-3.52,2.44-6.49,2.05-5.27,2.1-5.37,3.71-5.52l1.66-.15,2.34,6.25c1.27,3.47,2.29,6.4,2.29,6.64,0,.2-.63.34-1.37.34-1.07,0-1.46-.34-1.9-1.46-.49-1.37-.73-1.46-3.08-1.46s-2.54.1-2.98,1.46c-.44,1.17-.83,1.46-2,1.46-1.27,0-1.42-.15-1.12-1.07h.01ZM59.18,298.39c0-.88-1.07-3.47-1.46-3.47s-1.46,2.59-1.46,3.47c0,.24.68.44,1.46.44.83,0,1.46-.2,1.46-.44Z"/>
  <path class="cls-3" d="M71.39,298.83v-5.37h-1.76c-1.37,0-1.71-.15-1.56-.83.2-1.07,1.95-1.46,6.54-1.56q3.47-.05,3.22,1.17c-.2,1.03-.49,1.22-1.86,1.22h-1.66v10.74h-2.92v-5.37h0Z"/>
  <path class="cls-3" d="M86.13,303.37c-1.76-.88-3.52-3.71-3.52-5.76,0-1.9,1.17-4.35,2.69-5.52,1.03-.83,2-1.07,4.25-1.07,2.59,0,3.08.15,4.35,1.46.83.78,1.37,1.66,1.17,1.95-.44.73-2.29.59-3.37-.24-2.34-1.76-5.47-.29-6.01,2.78-.24,1.56-.05,2,1.22,3.32,1.66,1.61,2.83,1.86,4.3.73,1.22-.93,3.61-.98,3.61-.05,0,.39-.68,1.27-1.51,1.95-1.76,1.51-4.69,1.71-7.18.44h0Z"/>
  <path class="cls-3" d="M101.17,297.66v-6.64h1.46c1.42,0,1.46.05,1.46,2.44v2.44h5.38v-2.44c0-2.29.1-2.44,1.22-2.44h1.22v13.18h-1.22c-1.17,0-1.22-.15-1.22-2.69v-2.69h-5.33l-.15,2.59c-.15,2.34-.24,2.54-1.46,2.69l-1.37.15v-6.59h0Z"/>
  <path class="cls-3" d="M119.29,303.52c-1.03-1.27-.44-2.49,1.17-2.49,1.32,0,1.46.15,1.46,1.46,0,1.12-.24,1.51-1.03,1.61-.54.1-1.27-.2-1.61-.59h0Z"/>
  <path class="cls-3" d="M136.33,303.86c0-.24,1.07-3.13,2.34-6.49l2.29-6.1,1.71-.15,1.71-.15,2.2,6.01c2.83,7.71,2.78,7.23,1.07,7.23-1.12,0-1.51-.24-1.76-1.22-.29-1.07-.59-1.22-2.54-1.22-2.49,0-4.1.68-4.1,1.71,0,.49-.49.73-1.46.73-.78,0-1.46-.15-1.46-.34h0ZM144.14,298.39c0-.88-1.07-3.47-1.46-3.47s-1.46,2.59-1.46,3.47c0,.24.68.44,1.46.44.83,0,1.46-.2,1.46-.44Z"/>
  <path class="cls-3" d="M154.88,297.61v-6.59h1.37c1.17,0,1.81.59,4.2,3.91,1.51,2.15,2.83,3.91,2.88,3.91s0-1.22-.05-2.69c-.24-3.86.15-5.13,1.61-5.13h1.22v13.18h-1.37c-1.12,0-1.71-.54-3.42-3.17-1.42-2.1-2.44-3.17-3.08-3.17-.83,0-.93.34-.93,3.17,0,3.08-.05,3.17-1.22,3.17h-1.22v-6.59h0Z"/>
  <path class="cls-3" d="M173.29,303.91c-.2-.2-.34-3.17-.34-6.64v-6.25h1.61c1.42,0,1.81.39,4.25,4.05l2.69,4,.15-4c.15-3.96.15-4.05,1.32-4.05h1.22v13.18h-1.17c-.98,0-1.76-.78-3.76-3.66-1.42-2-2.73-3.66-2.93-3.66-.24,0-.44,1.61-.54,3.56-.15,3.13-.24,3.52-1.12,3.66-.59.1-1.17,0-1.37-.2h-.01Z"/>
  <path class="cls-3" d="M193.6,303.23c-2.93-1.76-3.91-5.66-2.25-9.13.98-2.1,3.08-3.08,6.45-3.08,1.95,0,2.64.24,3.86,1.37,3.08,2.88,2.98,7.52-.15,10.3-1.42,1.22-2.15,1.51-4.05,1.51-1.42,0-2.88-.39-3.86-.98h0ZM199.46,300.79c1.61-1.27,2.1-3.42,1.12-5.27-1.86-3.56-7.13-2.29-7.13,1.71,0,2.1.73,3.52,2.1,4.05,1.71.68,2.54.59,3.91-.49Z"/>
  <path class="cls-3" d="M212.31,303.13c-.15-.63-.29-3.03-.29-5.37v-4.3h-1.76c-1.51,0-1.71-.15-1.56-1.07.15-1.07.39-1.12,5.18-1.27l4.98-.15v1.27c0,1.12-.2,1.22-1.95,1.22h-1.95v5.37c0,5.32,0,5.37-1.17,5.37-.78,0-1.27-.34-1.46-1.07h-.02Z"/>
  <path class="cls-3" d="M222.56,303.13c.15-.63,1.27-3.52,2.39-6.49,2.05-5.27,2.15-5.37,3.76-5.52q1.61-.15,3.22,4.15c.88,2.34,2.05,5.32,2.59,6.64l.93,2.29h-1.46c-1.12,0-1.61-.34-2.2-1.46-.68-1.32-.98-1.46-3.22-1.46s-2.49.1-2.93,1.46c-.44,1.17-.83,1.46-2,1.46-1.27,0-1.42-.15-1.07-1.07h-.01ZM229.88,297.27c-.93-2.1-1.51-2.2-2.2-.34-.29.88-.54,1.66-.54,1.71,0,.1.78.2,1.71.2h1.66l-.63-1.56h0Z"/>
  <path class="cls-3" d="M242.63,303.86c-.2-.15-.34-2.59-.34-5.37v-5.03h-1.71c-1.51,0-1.71-.15-1.71-1.22v-1.22h9.76v1.22c0,1.07-.2,1.22-1.71,1.22h-1.71v5.37c0,5.32,0,5.37-1.12,5.37-.63,0-1.32-.15-1.46-.34h0Z"/>
  <path class="cls-3" d="M254.93,304.11c-.39-1.56-.44-4.98-.2-8.54l.34-4.54h4.3c4.25,0,4.3,0,4.3,1.22s-.15,1.22-3.13,1.22h-3.13v1.46q0,1.46,2.88,1.46c2.73,0,2.83.05,2.64,1.22-.24,1.03-.54,1.17-2.78,1.32-2.29.15-2.49.24-2.49,1.37s.15,1.22,3.08,1.37c2.88.15,3.08.24,2.93,1.22s-.44,1.07-4.39,1.22c-2.39.05-4.3.05-4.35,0h0Z"/>
  <path class="cls-3" d="M270.17,303.28c-.63-1.17.39-2.69,1.66-2.44,1.37.29,2.05,1.66,1.27,2.59-.88,1.07-2.34.98-2.93-.15Z"/>
  <path class="cls-3" d="M289.01,303.86c-.44-.39-.44-11.04-.05-12.06.15-.44.83-.78,1.46-.78,1.17,0,1.17.05,1.17,5.37v5.37h2.93c2.78,0,2.93.05,2.93,1.22s-.05,1.22-4.05,1.22c-2.25,0-4.25-.15-4.39-.34Z"/>
  <path class="cls-3" d="M303.32,297.61v-6.59h4.39c4.35,0,4.39,0,4.39,1.22s-.1,1.22-3.17,1.22h-3.17v2.92h2.98c2.78,0,2.93.05,2.78,1.12-.15.93-.49,1.07-2.98,1.22-2.78.15-2.83.2-2.69,1.46.15,1.27.29,1.32,3.22,1.46,2.83.15,3.03.2,3.03,1.32,0,1.22-.05,1.22-4.39,1.22h-4.39v-6.59.02Z"/>
  <path class="cls-3" d="M317.29,303.13c.2-.63,1.27-3.52,2.39-6.49,2.05-5.27,2.1-5.37,3.71-5.52l1.66-.15,2.34,6.25c1.27,3.42,2.29,6.4,2.29,6.64,0,.2-.63.34-1.37.34-1.07,0-1.46-.34-1.9-1.51-.54-1.42-.68-1.46-3.13-1.32-2.29.15-2.64.29-2.88,1.37-.24.93-.63,1.27-1.9,1.37-1.46.15-1.56.1-1.22-.98h0ZM324.61,297.27c-.93-2.1-1.51-2.2-2.2-.34-.29.88-.54,1.66-.54,1.71,0,.1.78.2,1.71.2h1.66l-.63-1.56h0Z"/>
  <path class="cls-3" d="M335.55,297.66v-6.64h3.42c4,0,5.62.63,6.35,2.49.68,1.56.29,3.17-1.03,4.64q-.93,1.03.29,3.17c1.51,2.73,1.51,2.88-.2,2.88-1.17,0-1.66-.39-2.69-2.2-1.76-2.98-3.13-3.03-3.32-.1-.15,1.86-.29,2.05-1.46,2.2l-1.37.15v-6.59h0ZM341.6,296.88c2.54-.93,1.12-3.61-1.76-3.32-1.27.1-1.66.39-1.76,1.27-.34,2.44.78,3.13,3.52,2.05h0Z"/>
  <path class="cls-3" d="M352.15,297.61v-6.59h1.37c1.22,0,1.81.59,4.15,4l2.78,4v-8h2.97l-.15,6.49-.15,6.45-1.27.15c-1.07.15-1.56-.34-3.52-3.32-3.03-4.49-3.76-4.49-3.76,0,0,3.32-.05,3.42-1.22,3.42h-1.22v-6.59h.02Z"/>
  <path class="cls-3" d="M369.83,303.37c-.68-1.27.15-2.59,1.66-2.59.68,0,1.32.34,1.51.78.73,1.9-2.25,3.56-3.17,1.81Z"/>
  <path class="cls-3" d="M100.64,272.27c-6.45-1.71-11.62-6.74-14.21-13.77-1.56-4.3-1.56-13.72,0-18.51,2.1-6.4,6.45-11.18,12.3-13.53,2.2-.88,3.66-1.07,8.06-1.12,6.15,0,8.4.73,11.91,3.91l2,1.81v-24.02h11.24v64.94h-11.24v-4.98l-2,1.81c-3.32,2.98-6.59,4.15-11.57,4.1-2.34,0-5.27-.29-6.49-.63h0ZM114.31,261.43c7.42-3.71,9.33-15.38,3.56-21.78-3.56-3.96-9.08-4.98-14.4-2.64-4.59,2.05-6.79,5.91-6.79,12.06s2.29,10.16,7.18,12.45c3.42,1.61,7.03,1.56,10.45-.1h0Z"/>
  <path class="cls-3" d="M22.32,267.24c-2-5.32-19.68-50.98-21.48-55.57-.63-1.61-.98-3.13-.78-3.32.2-.2,3.17-.29,6.59-.24l6.25.15,4.49,12.21c2.49,6.74,6.45,17.63,8.84,24.32,2.39,6.64,4.49,11.91,4.64,11.72.2-.24,3.71-9.96,7.81-21.63s7.96-22.56,8.59-24.17l1.07-2.93,6.64-.15c3.66-.05,6.64-.05,6.64.05,0,.54-18.02,47.8-23.05,60.55l-1.51,3.76h-12.9l-1.86-4.74h.02Z"/>
  <path class="cls-3" d="M66.5,248.78v-23.19h11.72v46.38h-11.72s0-23.19,0-23.19Z"/>
  <path class="cls-3" d="M69.19,218.8c-4.25-1.95-4.98-7.71-1.42-11.04,1.12-1.03,1.81-1.22,4.44-1.22,2.83,0,3.22.15,4.93,1.66,1.71,1.56,1.81,1.86,1.81,4.59,0,2.49-.2,3.17-1.22,4.25-2.59,2.78-5.18,3.32-8.54,1.76Z"/>
  <path class="cls-3" d="M91.02,181.65c-9.86-2.59-17.29-10.11-19.68-20.02-.54-2.2-.68-14.36-.68-65.67,0-59.72.05-63.13.88-65.87,2.83-9.23,9.18-15.97,17.82-18.95l3.27-1.12h156.26l3.37,1.37c10.06,4,16.46,12.55,17.63,23.39l.34,3.17-6.49,7.23-6.54,7.23-.24-8.25c-.24-7.62-.34-8.45-1.51-10.94-1.66-3.47-4.35-6.15-7.71-7.76l-2.73-1.27H95.59l-2.29,1.07c-3.22,1.46-6.49,4.69-8.06,7.91l-1.37,2.73v120.6l1.12,2.78c1.37,3.27,4.83,6.74,8.3,8.35l2.29,1.07h149.42l3.27-1.61c3.56-1.76,5.57-3.86,7.37-7.76,1.07-2.29,1.07-2.78,1.32-27.78l.24-25.49,5.57-6.15c3.27-3.56,5.96-6.15,6.49-6.15.83,0,.88,1.42.88,32.37,0,35.35-.05,35.5-2.93,41.55-1.66,3.56-5.91,8.4-9.18,10.45-1.27.83-3.86,2.15-5.71,2.88l-3.42,1.37-77.15.1c-74.71.1-77.25.05-80.71-.83h-.02Z"/>
  <path class="cls-3" d="M130.47,160.75c-.93-.54-2.15-1.61-2.69-2.44-.54-.83-1.37-1.51-1.81-1.56-.73,0-.88-.44-.88-2.69,0-2.05.2-2.69.73-2.69.39,0,1.03-.63,1.46-1.42,1.22-2.39,3.17-3.47,6.35-3.47s5.18.88,6.59,3.17l1.07,1.71,36.18.1,36.18.15.78,1.37c.68,1.32.68,1.42-.63,2.59l-1.37,1.17h-71.53l-.83,1.42c-.98,1.66-4.39,3.47-6.49,3.47-.78,0-2.2-.39-3.13-.88h.02Z"/>
  <path class="cls-3" d="M276.95,155.52v-2.64l17.48-.15q19.34-.15,21.68-3.42c1.03-1.51,1.12-2.25,1.37-9.67.2-7.18.34-8.25,1.32-9.77,1.9-3.08,3.42-3.61,11.38-3.91,7.67-.29,9.62-.88,10.69-3.27.34-.78.54-8.84.54-24.71,0-22.46-.05-23.58-.98-25.1-2.05-3.42-1.17-3.27-26.22-3.56l-22.56-.24,2.29-2.78,2.29-2.78h20.75l20.75-.05,2.49,1.17c1.37.63,3.27,2.1,4.25,3.27,3.27,3.81,3.32,4.25,3.17,31.05l-.15,23.83-1.56,3.17c-1.22,2.44-4.2,5.96-12.84,15.38-12.7,13.77-12.99,14.06-16.36,15.67l-2.44,1.17h-37.35v-2.69.03Z"/>
  <path class="cls-3" d="M214.45,125.44c-.68-1.22.24-4.15,5.03-15.82,1.86-4.54,3.47-8.59,3.61-8.89.44-1.17,1.86-.63,3.03,1.12,1.9,2.73,7.91,8.06,11.47,10.16,1.81,1.07,3.08,2.1,2.88,2.29-.59.59-12.45,7.08-17.82,9.77-5.22,2.64-7.37,2.98-8.2,1.37h0Z"/>
  <path class="cls-3" d="M286.52,120.66c-1.22-1.32-.83-3.52.68-4.3,1.37-.68,24.22-.93,25.2-.24.29.2.78.83,1.12,1.46.59,1.12.05,2.83-1.12,3.61-.29.2-6.05.39-12.79.39-11.43,0-12.3-.05-13.09-.93h0Z"/>
  <path class="cls-3" d="M241.65,108.79c-3.76-2.05-9.47-6.98-12.26-10.6-1.22-1.61-2.25-3.03-2.25-3.17,0-.39,13.43-15.67,54.1-61.47,4.93-5.57,9.28-10.11,9.62-10.11.78,0,17.09,14.75,17.09,15.48,0,.34-9.33,11.04-20.75,23.88-11.43,12.84-25.54,28.71-31.45,35.3-5.86,6.59-10.79,12.06-10.99,12.11-.15.05-1.56-.59-3.13-1.42h.02Z"/>
  <path class="cls-3" d="M286.52,105.67c-.44-.39-.78-1.27-.78-1.9,0-2.73-.24-2.69,22.22-2.69,18.16,0,20.75.1,21.44.78.88.88.98,2.29.29,3.66-.49.88-1.27.93-21.48.93-18.36,0-21-.1-21.68-.78h-.01Z"/>
  <path class="cls-3" d="M286.72,90.83c-1.22-1.22-1.27-3.03-.1-4.05.83-.73,3.03-.83,21.48-.83,22.56,0,22.07-.05,22.07,2.93s-.1,2.93-22.31,2.93c-19.53,0-20.21-.05-21.14-.98h0Z"/>
  <path class="cls-3" d="M303.81,27.3c-4.44-4.05-8.35-7.62-8.64-7.91-.49-.49.78-2.2,6.25-8.4,3.76-4.3,7.76-8.4,8.84-9.13,5.27-3.56,12.79-1.86,16.26,3.71,1.32,2.15,1.46,2.83,1.46,6.1,0,2.83-.29,4.2-1.07,5.71-.93,1.76-11.72,14.31-14.11,16.41-.88.78-1.27.49-8.98-6.49h0Z"/>
  <g>
    <path class="cls-2" d="M161.23,273.1c-6.64-.78-12.35-3.27-16.5-7.13-3.03-2.88-6.15-7.18-5.57-7.76.63-.63,9.47-5.76,9.91-5.76.24,0,.93.83,1.56,1.86,1.61,2.54,4.93,5.37,7.62,6.59,2.49,1.07,7.57,1.61,10.94,1.12,2.83-.44,6.35-2.78,7.37-4.88,1.81-3.86.39-7.47-3.76-9.33-1.42-.68-5.96-2.1-10.11-3.17-12.35-3.22-17.19-6.15-19.92-12.16-1.07-2.25-1.27-3.47-1.27-6.88,0-3.66.2-4.54,1.51-7.42,3.66-7.86,10.89-11.57,22.36-11.62,8.35,0,14.75,2.98,19.82,9.28,3.22,4,3.27,4.3,1.12,6.15-1.07.88-2.2,1.61-2.59,1.66-.39,0-1.07.29-1.46.63-1.42,1.22-4.1,2.05-4.35,1.42-.1-.34-1.03-1.66-2.05-2.98-2.83-3.56-6.3-5.13-11.47-5.13-3.91-.05-4.1,0-6.84,1.86-2.88,2-3.66,3.22-3.66,5.66,0,2.15.93,3.76,2.88,5.03,2.39,1.56,3.56,1.95,12.01,4.25,8.84,2.39,12.65,4.1,15.82,7.08,3.56,3.37,4.69,6.2,4.69,12.21,0,4.25-.15,5.22-1.27,7.57-1.71,3.61-3.86,6.01-7.76,8.54-2.73,1.81-3.81,2.2-8.06,2.88-4.74.73-7.28.83-10.99.44h.02Z"/>
    <path class="cls-2" d="M210.99,272.27c-14.31-4.1-20.9-21.09-13.67-35.35,7.28-14.36,29.69-16.06,38.18-2.88,1.03,1.61,1.9,3.17,1.9,3.52,0,.59-7.42,4.64-8.5,4.64-.39,0-1.22-.83-1.9-1.81-.73-1.03-2.1-2.39-3.13-3.08-1.56-1.07-2.29-1.22-6.01-1.22s-4.44.15-6.25,1.37c-2.83,1.86-4.83,4.79-5.52,8.06-1.76,8.45,2.88,15.97,10.55,17.04,3.56.49,6.45-.63,9.42-3.61,1.42-1.42,2.83-2.59,3.08-2.59,1.07,0,8.25,3.96,8.25,4.54,0,1.22-2.83,5.08-5.22,7.18-4,3.42-7.23,4.54-13.57,4.74-3.37.05-6.2-.15-7.62-.54h.01Z"/>
    <path class="cls-2" d="M317.73,272.27c-2.2-.68-5.52-2.69-6.54-3.91-1.03-1.22-1.42-.93-1.81,1.42l-.29,2.2h-10.64v-64.46h11.24v24.42l1.95-2.15c2.98-3.22,6.01-4.35,11.96-4.39,4,0,5.37.2,7.67,1.07,5.81,2.34,10.16,7.28,12.21,13.96,2.05,6.54,1.32,15.63-1.66,21.48-1.17,2.29-5.08,6.49-7.67,8.35-3.52,2.39-11.87,3.42-16.41,2h0ZM326.03,261.77c4.79-2.15,7.28-6.45,7.28-12.5-.05-8.4-4.69-13.57-12.16-13.57-8.59.05-14.06,9.08-11.23,18.51,2,6.69,9.91,10.4,16.11,7.57h0Z"/>
    <path class="cls-2" d="M365.14,271.93c-6.25-2.15-10.4-5.91-13.43-12.16l-1.76-3.66v-6.84c.05-5.96.2-7.18,1.12-9.62,2.39-5.96,7.28-10.99,12.74-13.09,3.47-1.32,10.25-1.81,13.77-.98,10.16,2.39,16.5,11.43,16.55,23.49v3.22l-9.13.29c-5.08.2-12.4.34-16.31.34s-7.23.15-7.42.29c-.39.39.93,3.91,2.1,5.62,1.42,1.95,4.69,3.76,8.01,4.39,3.81.68,7.42-.34,10.25-3.03,1.17-1.03,2.59-1.9,3.17-1.9,1.22,0,7.86,3.81,7.86,4.49,0,.29-1.37,1.9-3.03,3.61-2,2.1-4.1,3.71-6.4,4.83-3.32,1.66-3.52,1.71-9.33,1.71-4.64-.05-6.54-.24-8.79-1.03l.03.03ZM382.91,243.71c0-.2-.24-1.12-.54-2.05-1.46-4.35-5.27-6.93-10.25-6.93s-8.79,2.73-10.45,7.47l-.68,1.95h10.94c6.05,0,10.99-.2,10.99-.44h0Z"/>
    <path class="cls-2" d="M243.75,249.03v-22.95h11.19l.15,3.27.15,3.22,1.42-2.05c2.34-3.37,5.03-4.59,10.4-4.83l4.54-.2v11.24l-3.03-.24c-4.54-.39-7.03.49-9.72,3.27-3.13,3.17-3.37,4.69-3.37,19.78v12.45h-11.72v-22.95h-.01Z"/>
    <path class="cls-2" d="M278.42,249.03v-22.95h11.24v45.9h-11.24v-22.95Z"/>
    <path class="cls-2" d="M280.91,218.85c-6.4-3.22-4.1-12.79,3.08-12.79,5.57,0,8.98,6.3,5.81,10.69-1.17,1.61-3.86,2.98-5.76,2.98-.78,0-2.2-.39-3.13-.88h0Z"/>
    <path class="cls-2" d="M94.97,156.25c-1.32-.54-1.9-2.49-1.12-3.86.54-1.03.78-1.03,16.6-1.03h16.11v5.38l-15.23-.05c-8.4,0-15.77-.2-16.36-.44h0Z"/>
    <path class="cls-2" d="M146.49,119.68l-1.61-1.42-.15-27.29c-.1-14.99,0-28.22.15-29.39.44-3.03,2-4.44,4.88-4.44,2.1,0,3.81.93,22.61,12.26,25.59,15.43,24.85,14.94,25.98,16.46,1.22,1.56,1.27,4,0,5.57-.49.68-4.64,3.52-9.13,6.25-4.49,2.78-14.31,8.84-21.78,13.53-7.47,4.64-14.26,8.79-14.99,9.18-2.2,1.12-4.2.93-5.96-.68v-.03Z"/>
  </g>
  <text class="cls-1" transform="translate(221.12 157.91)"><tspan x="0" y="0">6:21</tspan></text>
</svg>